<?xml version="1.0" encoding="UTF-8"?>
<svg width="40px" height="40px" viewBox="0 0 40 40" version="1.1" xmlns="http://www.w3.org/2000/svg" xmlns:xlink="http://www.w3.org/1999/xlink">
    <!-- Generator: Sketch 48.2 (47327) - http://www.bohemiancoding.com/sketch -->
    <title>Shape</title>
    <desc>Created with Sketch.</desc>
    <defs></defs>
    <g id="website" stroke="none" stroke-width="1" fill="none" fill-rule="evenodd" transform="translate(-730.000000, -3985.000000)">
        <g id="Group-6" transform="translate(730.000000, 3985.000000)" fill="#252525" fill-rule="nonzero">
            <path d="M37.1,0 L2.9,0 C1.3,0 0,1.3 0,2.9 L0,37 C0,38.7 1.3,40 2.9,40 L37,40 C38.6,40 39.9,38.7 39.9,37.1 L39.9,2.9 C40,1.3 38.7,0 37.1,0 Z M16.1,13.6 L21.7,23.3 L10.5,23.3 L16.1,13.6 Z M12.8,31.7 C11.8,31.7 11,31.1 10.6,30.3 L8.5,26.7 L23.8,26.7 L26.7,31.7 L12.8,31.7 Z M32.6,28.3 L30.6,31.7 L18.1,10 L22.4,10 C23.4,10 24.2,10.5 24.6,11.3 L32.7,25.4 C33,25.8 33.1,26.3 33.1,26.8 C33.1,27.4 33,27.7 32.6,28.3 Z" id="Shape"></path>
        </g>
    </g>
</svg>