<?xml version="1.0" encoding="UTF-8"?>
<svg width="40px" height="40px" viewBox="0 0 40 40" version="1.1" xmlns="http://www.w3.org/2000/svg" xmlns:xlink="http://www.w3.org/1999/xlink">
    <!-- Generator: Sketch 48.2 (47327) - http://www.bohemiancoding.com/sketch -->
    <title>Blue</title>
    <desc>Created with Sketch.</desc>
    <defs></defs>
    <g id="website" stroke="none" stroke-width="1" fill="none" fill-rule="evenodd" transform="translate(-730.000000, -3985.000000)">
        <g id="Group-6" transform="translate(730.000000, 3985.000000)" fill="#252525" fill-rule="nonzero">
            <path d="M2.20472441,0 C0.987088741,-7.45586812e-17 1.49117362e-16,0.987088741 0,2.20472441 L0,37.7952756 C1.49117362e-16,39.0129113 0.987088741,40 2.20472441,40 L21.3622047,40 L21.3622047,24.511811 L16.1496063,24.511811 L16.1496063,18.4724409 L21.3622047,18.4724409 L21.3622047,14.015748 C21.3622047,8.8503937 24.511811,6.03937008 29.1259843,6.03937008 C30.6807387,6.04121647 32.2342324,6.12795977 33.7795276,6.2992126 L33.7795276,11.6929134 L30.5826772,11.6929134 C28.0787402,11.6929134 27.5905512,12.8818898 27.5905512,14.6299213 L27.5905512,18.488189 L33.5669291,18.488189 L32.7795276,24.5275591 L27.5590551,24.5275591 L27.5590551,39.992126 L37.7952756,39.992126 C39.0129113,39.992126 40,39.0050372 40,37.7874016 L40,2.20472441 C40,0.987088741 39.0129113,7.45586812e-17 37.7952756,0 L2.20472441,0 Z" id="Blue"></path>
        </g>
    </g>
</svg>