<?xml version="1.0" encoding="UTF-8"?>
<svg width="40px" height="40px" viewBox="0 0 40 40" version="1.1" xmlns="http://www.w3.org/2000/svg" xmlns:xlink="http://www.w3.org/1999/xlink">
    <!-- Generator: Sketch 48.2 (47327) - http://www.bohemiancoding.com/sketch -->
    <title>path4157</title>
    <desc>Created with Sketch.</desc>
    <defs></defs>
    <g id="website" stroke="none" stroke-width="1" fill="none" fill-rule="evenodd" transform="translate(-820.000000, -3985.000000)">
        <g id="Group-6" transform="translate(730.000000, 3985.000000)" fill="#252525" fill-rule="nonzero">
            <path d="M92.962963,0.000267616083 C92.1875655,-0.0101827744 91.4397543,0.285802871 90.8840755,0.823096769 C90.3283967,1.36039067 90.0103797,2.09496974 90,2.86519944 L90,37.1426214 C90.0259179,38.7434833 91.3512972,40.0215103 92.962963,39.9997256 L127.037037,39.9997256 C127.812434,40.010176 128.560246,39.7141903 129.115924,39.1768964 C129.671603,38.6396025 129.98962,37.9050235 130,37.1347938 L130,2.86519944 C129.98962,2.09496974 129.671603,1.36039067 129.115924,0.823096769 C128.560246,0.285802871 127.812434,-0.0101827744 127.037037,0.000267616083 L92.962963,0.000267616083 Z M99.1489362,6.71641927 C100.275069,6.72480894 101.311152,7.32934047 101.866904,8.30229269 C102.422656,9.2752449 102.413645,10.4688032 101.843264,11.4333657 C101.272883,12.3979283 100.227788,12.986955 99.1016548,12.9785653 C97.9755222,12.9645825 96.9424424,12.3548828 96.3915668,11.379134 C95.8406912,10.4033852 95.8557108,9.20982688 96.4309679,8.2480609 C97.006225,7.28629493 98.0543244,6.70243644 99.1804571,6.71641927 L99.1489362,6.71641927 Z M116.973995,14.9981074 C120.914106,14.9981074 123.92435,17.5812427 123.92435,23.1310696 L123.92435,33.4870937 L117.880221,33.4870937 L117.880221,23.8199057 C117.880221,21.3933241 117.005516,19.7338554 114.822695,19.7338554 C113.429358,19.7438152 112.190014,20.6155707 111.717888,21.9177788 C111.566877,22.387774 111.502802,22.8810498 111.528763,23.3737278 L111.528763,33.4870937 L105.468873,33.4870937 C105.468873,33.4870937 105.547675,17.1194094 105.468873,15.4208023 L111.520883,15.4208023 L111.520883,18.0039375 C112.638175,16.0840333 114.735507,14.9383422 116.966115,15.0294182 L116.973995,14.9981074 Z M111.528763,18.0039375 L111.481481,18.0743867 L111.528763,18.0743867 L111.528763,18.0039375 Z M96.0914106,15.4208023 L102.13554,15.4208023 L102.13554,33.4870937 L96.0914106,33.4870937 L96.0914106,15.4208023 Z" id="path4157"></path>
        </g>
    </g>
</svg>