<svg xmlns="http://www.w3.org/2000/svg" width="118" height="43" viewBox="0 0 118.19 43.23"><defs><style>.cls-1{fill:none}.cls-3{fill:#fff}.cls-8{fill:#ef3c42}</style><clipPath id="clip-path"><path class="cls-1" d="M418 113v14"/></clipPath><clipPath id="clip-path-2" transform="translate(-299.91 -83.92)"/><clipPath id="clip-path-3" transform="translate(-299.91 -83.92)"><path class="cls-1" d="M0 0h1770v4498H0z"/></clipPath><clipPath id="clip-path-4" transform="translate(-299.91 -83.92)"><path class="cls-1" d="M359 99h83v42h-83z"/></clipPath></defs><g id="Layer_2" data-name="Layer 2"><g id="Layer_3" data-name="Layer 3"><path class="cls-3" d="M309.86 95v7h-3.36v-7l-6.59-11h3a1.05 1.05 0 0 1 .69.21 1.79 1.79 0 0 1 .43.54l3.31 6q.29.54.5 1c.14.32.27.64.39.94q.16-.47.37-1t.49-1l3.29-6a1.68 1.68 0 0 1 .41-.51 1 1 0 0 1 .7-.24h3zM329.59 83.92v2.68h-8v5h6.31v2.6h-6.31v5.11h8V102h-11.4V83.92zM336 94.94V102h-3.36V83.92h5.51a11.49 11.49 0 0 1 3.17.38 6 6 0 0 1 2.16 1.07 4.12 4.12 0 0 1 1.21 1.63 5.75 5.75 0 0 1 .13 3.83 5 5 0 0 1-.77 1.48 5.22 5.22 0 0 1-1.25 1.16 6.5 6.5 0 0 1-1.69.8 3.33 3.33 0 0 1 1.1 1l4.52 6.67h-3a1.48 1.48 0 0 1-.74-.17 1.52 1.52 0 0 1-.52-.5l-3.8-5.79a1.34 1.34 0 0 0-.47-.46 1.64 1.64 0 0 0-.76-.14zm0-2.41h2.1a5.18 5.18 0 0 0 1.66-.24 3.2 3.2 0 0 0 1.16-.66 2.63 2.63 0 0 0 .68-1 3.44 3.44 0 0 0 .23-1.26 2.57 2.57 0 0 0-.91-2.11 4.33 4.33 0 0 0-2.77-.74H336zM351 83.94a.83.83 0 0 1 .5.24 2.5 2.5 0 0 1 .25.28l9.49 12.09c0-.29-.06-.58-.07-.86s0-.54 0-.78v-11h3V102h-1.74a1.55 1.55 0 0 1-.66-.12 1.47 1.47 0 0 1-.51-.45l-9.45-12q0 .4.06.79V102h-3V83.92h1.76zM383.66 102h-2.6a1.14 1.14 0 0 1-.72-.22 1.24 1.24 0 0 1-.41-.54l-1.35-3.69h-7.48l-1.35 3.69a1.18 1.18 0 0 1-.39.53 1.11 1.11 0 0 1-.72.24H366l7.1-18.08h3.44zM372 95.17h5.76l-2.2-6q-.15-.4-.33-.94t-.39-1.23q-.18.64-.34 1.19t-.33 1zM392.17 99.29a4.44 4.44 0 0 0 1.74-.32 3.63 3.63 0 0 0 1.3-.91 4 4 0 0 0 .81-1.42 5.87 5.87 0 0 0 .28-1.87V83.92h3.36v10.83a8.35 8.35 0 0 1-.52 3 6.74 6.74 0 0 1-1.49 2.36 6.81 6.81 0 0 1-2.36 1.55 9.05 9.05 0 0 1-6.25 0 6.62 6.62 0 0 1-3.84-3.91 8.34 8.34 0 0 1-.52-3V83.92H388v10.82a5.86 5.86 0 0 0 .28 1.88 4.1 4.1 0 0 0 .81 1.43 3.54 3.54 0 0 0 1.29.92 4.44 4.44 0 0 0 1.79.32zM407.44 92.7l-5.76-8.78H405a1 1 0 0 1 .51.09.85.85 0 0 1 .28.31l4.13 6.68q.06-.16.14-.32a3.48 3.48 0 0 1 .17-.32l3.77-5.97a.81.81 0 0 1 .71-.46h3.23l-5.83 8.64 6 9.44h-3.36a.81.81 0 0 1-.54-.17 1.64 1.64 0 0 1-.34-.4l-4.19-6.92a2.64 2.64 0 0 1-.11.28l-.12.24-4 6.4a2 2 0 0 1-.34.39.72.72 0 0 1-.5.18h-3.15zM307 122.28a6.82 6.82 0 0 1-.29 2.1 4.29 4.29 0 0 1-.84 1.53 3.47 3.47 0 0 1-1.33.93 4.71 4.71 0 0 1-1.77.32 6 6 0 0 1-.91-.07 6.76 6.76 0 0 1-.95-.22v-.28-.28a.39.39 0 0 1 .07-.16.23.23 0 0 1 .2-.07h.21l.3.08.4.07a3.45 3.45 0 0 0 .53 0 3.71 3.71 0 0 0 1.37-.24 2.63 2.63 0 0 0 1-.73 3.33 3.33 0 0 0 .66-1.25 6.25 6.25 0 0 0 .23-1.78v-9.45h1zM323.8 119.92a8.58 8.58 0 0 1-.49 3 6.59 6.59 0 0 1-1.38 2.28 6.1 6.1 0 0 1-2.13 1.46 7.54 7.54 0 0 1-5.48 0 6.09 6.09 0 0 1-2.13-1.46 6.65 6.65 0 0 1-1.38-2.28 9.15 9.15 0 0 1 0-5.94 6.66 6.66 0 0 1 1.38-2.28 6.16 6.16 0 0 1 2.13-1.46 7 7 0 0 1 2.73-.52 7.1 7.1 0 0 1 2.75.51 6.09 6.09 0 0 1 2.13 1.46 6.65 6.65 0 0 1 1.38 2.29 8.55 8.55 0 0 1 .49 2.94zm-1.06 0a8.08 8.08 0 0 0-.41-2.66 5.74 5.74 0 0 0-1.15-2 5 5 0 0 0-1.8-1.25 6 6 0 0 0-2.33-.43 5.94 5.94 0 0 0-2.31.43 5.06 5.06 0 0 0-1.8 1.25 5.7 5.7 0 0 0-1.17 2 8.75 8.75 0 0 0 0 5.33 5.71 5.71 0 0 0 1.17 2 5 5 0 0 0 1.8 1.25 6 6 0 0 0 2.31.43 6.08 6.08 0 0 0 2.33-.43 4.91 4.91 0 0 0 1.8-1.25 5.74 5.74 0 0 0 1.15-2 8.06 8.06 0 0 0 .41-2.67zM328.45 120.6v6.4h-1v-14.15H331a5.9 5.9 0 0 1 3.66.95 3.31 3.31 0 0 1 1.21 2.78 3.8 3.8 0 0 1-.28 1.48 3.46 3.46 0 0 1-.81 1.17 4.27 4.27 0 0 1-1.27.83 5.65 5.65 0 0 1-1.67.43 1.62 1.62 0 0 1 .43.4l4.87 6.12h-.89a.59.59 0 0 1-.27-.06.73.73 0 0 1-.23-.2l-4.48-5.75a1 1 0 0 0-.37-.31 1.51 1.51 0 0 0-.6-.09zm0-.76h2.46a5.85 5.85 0 0 0 1.69-.22 3.64 3.64 0 0 0 1.26-.65 2.77 2.77 0 0 0 .78-1 3.16 3.16 0 0 0 .27-1.33 2.6 2.6 0 0 0-1-2.24 4.81 4.81 0 0 0-2.88-.73h-2.59zM351.66 119.92a8.37 8.37 0 0 1-.49 3 6.37 6.37 0 0 1-1.38 2.23 6 6 0 0 1-2.13 1.41 7.41 7.41 0 0 1-2.75.49h-5.16v-14.2h5.16a7.43 7.43 0 0 1 2.75.49 6 6 0 0 1 2.13 1.41 6.37 6.37 0 0 1 1.38 2.23 8.34 8.34 0 0 1 .49 2.94zm-1.06 0a7.89 7.89 0 0 0-.41-2.64 5.54 5.54 0 0 0-1.16-2 4.91 4.91 0 0 0-1.79-1.22 6.23 6.23 0 0 0-2.33-.42h-4.13v12.49h4.13a6.22 6.22 0 0 0 2.33-.42 4.91 4.91 0 0 0 1.79-1.22 5.54 5.54 0 0 0 1.16-2 7.93 7.93 0 0 0 .41-2.57zM365.3 127h-.79a.35.35 0 0 1-.23-.08.5.5 0 0 1-.14-.19l-1.67-4.11h-6.95l-1.66 4.11a.43.43 0 0 1-.14.19.37.37 0 0 1-.24.08h-.78l5.79-14.15h1zm-9.47-5.14h6.34l-2.89-7.15c0-.11-.09-.24-.14-.38l-.14-.46-.14.46c0 .14-.09.27-.14.39zM368.26 112.88a.47.47 0 0 1 .17.16l9.16 12.26v-12.45h.9V127H378a.43.43 0 0 1-.37-.2l-9.2-12.28V127h-.89v-14.15h.5a.56.56 0 0 1 .22.03z" transform="translate(-299.91 -83.92)"/><path class="cls-8" d="M118.09 39.34l-3.8 3.74M82.09 32.61l3.75-3.68M85.84 28.93l-3.75 3.68v2.81l6.61-6.49h-2.86zM95.84 28.93l-13.75 13.5v.65h2.19L98.7 28.93h-2.86zM105.84 28.93L91.43 43.08h2.85l14.42-14.15h-2.86zM118.09 28.93h-2.25l-14.41 14.15h2.85l13.81-13.55v-.6zM118.09 36.54l-6.66 6.54h2.85l3.81-3.74v-2.8z"/></g></g></svg>