<?xml version="1.0" encoding="UTF-8"?>
<svg width="40px" height="40px" viewBox="0 0 40 40" version="1.1" xmlns="http://www.w3.org/2000/svg" xmlns:xlink="http://www.w3.org/1999/xlink">
    <!-- Generator: Sketch 48.2 (47327) - http://www.bohemiancoding.com/sketch -->
    <title>Fill 1</title>
    <desc>Created with Sketch.</desc>
    <defs></defs>
    <g id="website" stroke="none" stroke-width="1" fill="none" fill-rule="evenodd" transform="translate(-1000.000000, -3985.000000)">
        <g id="Group-6" transform="translate(730.000000, 3985.000000)" fill="#252525">
            <path d="M276.765183,12.8992689 L289.999556,23.6243639 L303.233928,12.8992689 L303.233928,29.9255572 L276.765183,29.9255572 L276.765183,12.8992689 Z M303.217928,10.0735539 L289.999556,20.7862048 L276.782072,10.0735539 L303.217928,10.0735539 Z M272.928824,39.9991111 L307.071176,39.9991111 C308.688029,39.9991111 310,38.688918 310,37.0711762 L310,2.9288238 C310,1.31197085 308.688029,0 307.071176,0 L272.928824,0 C271.310193,0 270,1.31197085 270,2.9288238 L270,37.0711762 C270,38.688918 271.310193,39.9991111 272.928824,39.9991111 Z" id="Fill-1"></path>
        </g>
    </g>
</svg>