<?xml version="1.0" encoding="UTF-8"?>
<svg width="40px" height="40px" viewBox="0 0 40 40" version="1.1" xmlns="http://www.w3.org/2000/svg" xmlns:xlink="http://www.w3.org/1999/xlink">
    <!-- Generator: Sketch 48.2 (47327) - http://www.bohemiancoding.com/sketch -->
    <title>Fill 1</title>
    <desc>Created with Sketch.</desc>
    <defs></defs>
    <g id="website" stroke="none" stroke-width="1" fill="none" fill-rule="evenodd" transform="translate(-910.000000, -3985.000000)">
        <g id="Group-6" transform="translate(730.000000, 3985.000000)" fill="#252525">
            <path d="M211.436667,15.395 C211.783333,23.09 206.045,31.67 195.886667,31.67 C192.796667,31.67 189.921667,30.765 187.5,29.2116667 C190.403333,29.5533333 193.3,28.7483333 195.6,26.9466667 C193.205,26.9016667 191.185,25.32 190.49,23.1466667 C191.348333,23.31 192.191667,23.2616667 192.96,23.0533333 C190.326667,22.525 188.513333,20.155 188.571667,17.62 C189.308333,18.03 190.151667,18.2766667 191.048333,18.305 C188.613333,16.6766667 187.923333,13.46 189.353333,11 C192.053333,14.31 196.085,16.4883333 200.631667,16.7166667 C199.833333,13.295 202.43,10 205.961667,10 C207.535,10 208.956667,10.6633333 209.953333,11.7283333 C211.2,11.4833333 212.373333,11.0283333 213.428333,10.4016667 C213.021667,11.68 212.153333,12.7516667 211.025,13.4283333 C212.131667,13.295 213.186667,13.0016667 214.166667,12.5666667 C213.431667,13.66 212.505,14.6233333 211.436667,15.395 M180,2.92833333 L180,37.0716667 C180,38.69 181.31,40 182.928333,40 L217.071667,40 C218.688333,40 220,38.69 220,37.0716667 L220,2.92833333 C220,1.31166667 218.688333,0 217.071667,0 L182.928333,0 C181.31,0 180,1.31166667 180,2.92833333" id="Fill-1"></path>
        </g>
    </g>
</svg>